<?xml version="1.0" encoding="utf-8"?>
<!-- Generator: Adobe Illustrator 18.1.1, SVG Export Plug-In . SVG Version: 6.00 Build 0)  -->
<svg version="1.1" xmlns="http://www.w3.org/2000/svg" xmlns:xlink="http://www.w3.org/1999/xlink" x="0px" y="0px"
	 viewBox="0 0 250 250" enable-background="new 0 0 250 250" xml:space="preserve">
<pattern  width="28.8" height="28.8" patternUnits="userSpaceOnUse" id="New_Pattern_Swatch_1" viewBox="2.2 -31 28.8 28.8" overflow="visible">
	<g>
		<polygon fill="none" points="2.2,-31 31,-31 31,-2.2 2.2,-2.2 		"/>
		<g>
			<path fill="#FF333F" d="M31,0c1.2,0,2.2-1,2.2-2.2c0-1.2-1-2.2-2.2-2.2c-1.2,0-2.2,1-2.2,2.2C28.8-1,29.8,0,31,0z"/>
			<path fill="#FF333F" d="M16.6,0c1.2,0,2.2-1,2.2-2.2c0-1.2-1-2.2-2.2-2.2c-1.2,0-2.2,1-2.2,2.2C14.4-1,15.4,0,16.6,0z"/>
			<path fill="#FF333F" d="M31-14.4c1.2,0,2.2-1,2.2-2.2c0-1.2-1-2.2-2.2-2.2c-1.2,0-2.2,1-2.2,2.2C28.8-15.4,29.8-14.4,31-14.4z"/>
			<path fill="#FF333F" d="M16.6-14.4c1.2,0,2.2-1,2.2-2.2c0-1.2-1-2.2-2.2-2.2c-1.2,0-2.2,1-2.2,2.2C14.4-15.4,15.4-14.4,16.6-14.4
				z"/>
			<path fill="#FF333F" d="M9.4-7.2c1.2,0,2.2-1,2.2-2.2c0-1.2-1-2.2-2.2-2.2c-1.2,0-2.2,1-2.2,2.2C7.2-8.2,8.2-7.2,9.4-7.2z"/>
			<path fill="#FF333F" d="M23.8-7.2c1.2,0,2.2-1,2.2-2.2c0-1.2-1-2.2-2.2-2.2c-1.2,0-2.2,1-2.2,2.2C21.6-8.2,22.6-7.2,23.8-7.2z"/>
			<path fill="#FF333F" d="M9.4-21.6c1.2,0,2.2-1,2.2-2.2c0-1.2-1-2.2-2.2-2.2c-1.2,0-2.2,1-2.2,2.2C7.2-22.6,8.2-21.6,9.4-21.6z"/>
			<path fill="#FF333F" d="M23.8-21.6c1.2,0,2.2-1,2.2-2.2c0-1.2-1-2.2-2.2-2.2c-1.2,0-2.2,1-2.2,2.2C21.6-22.6,22.6-21.6,23.8-21.6
				z"/>
		</g>
		<g>
			<path fill="#FF333F" d="M2.2,0c1.2,0,2.2-1,2.2-2.2c0-1.2-1-2.2-2.2-2.2C1-4.3,0-3.4,0-2.2C0-1,1,0,2.2,0z"/>
			<path fill="#FF333F" d="M2.2-14.4c1.2,0,2.2-1,2.2-2.2c0-1.2-1-2.2-2.2-2.2c-1.2,0-2.2,1-2.2,2.2C0-15.4,1-14.4,2.2-14.4z"/>
		</g>
		<g>
			<path fill="#FF333F" d="M31-28.8c1.2,0,2.2-1,2.2-2.2c0-1.2-1-2.2-2.2-2.2c-1.2,0-2.2,1-2.2,2.2C28.8-29.8,29.8-28.8,31-28.8z"/>
			<path fill="#FF333F" d="M16.6-28.8c1.2,0,2.2-1,2.2-2.2c0-1.2-1-2.2-2.2-2.2c-1.2,0-2.2,1-2.2,2.2C14.4-29.8,15.4-28.8,16.6-28.8
				z"/>
		</g>
		<g>
			<path fill="#FF333F" d="M2.2-28.8c1.2,0,2.2-1,2.2-2.2c0-1.2-1-2.2-2.2-2.2C1-33.1,0-32.2,0-31C0-29.8,1-28.8,2.2-28.8z"/>
		</g>
	</g>
</pattern>
<pattern  width="72" height="72" patternUnits="userSpaceOnUse" id="New_Pattern_Swatch_2" viewBox="0.2 -72 72 72" overflow="visible">
	<g>
		<polygon fill="none" points="0.2,-72 72.2,-72 72.2,0 0.2,0 		"/>
		<g>
			<line fill="none" stroke="#FF333F" stroke-width="0.72" x1="72" y1="-3.6" x2="144.5" y2="-3.6"/>
			<line fill="none" stroke="#FF333F" stroke-width="0.72" x1="72" y1="-18" x2="144.5" y2="-18"/>
			<line fill="none" stroke="#FF333F" stroke-width="0.72" x1="72" y1="-32.4" x2="144.5" y2="-32.4"/>
			<line fill="none" stroke="#FF333F" stroke-width="0.72" x1="72" y1="-46.8" x2="144.5" y2="-46.8"/>
			<line fill="none" stroke="#FF333F" stroke-width="0.72" x1="72" y1="-61.2" x2="144.5" y2="-61.2"/>
			<line fill="none" stroke="#FF333F" stroke-width="0.72" x1="72" y1="-10.8" x2="144.5" y2="-10.8"/>
			<line fill="none" stroke="#FF333F" stroke-width="0.72" x1="72" y1="-25.2" x2="144.5" y2="-25.2"/>
			<line fill="none" stroke="#FF333F" stroke-width="0.72" x1="72" y1="-39.6" x2="144.5" y2="-39.6"/>
			<line fill="none" stroke="#FF333F" stroke-width="0.72" x1="72" y1="-54" x2="144.5" y2="-54"/>
			<line fill="none" stroke="#FF333F" stroke-width="0.72" x1="72" y1="-68.4" x2="144.5" y2="-68.4"/>
		</g>
		<g>
			<line fill="none" stroke="#FF333F" stroke-width="0.72" x1="0" y1="-3.6" x2="72.5" y2="-3.6"/>
			<line fill="none" stroke="#FF333F" stroke-width="0.72" x1="0" y1="-18" x2="72.5" y2="-18"/>
			<line fill="none" stroke="#FF333F" stroke-width="0.72" x1="0" y1="-32.4" x2="72.5" y2="-32.4"/>
			<line fill="none" stroke="#FF333F" stroke-width="0.72" x1="0" y1="-46.8" x2="72.5" y2="-46.8"/>
			<line fill="none" stroke="#FF333F" stroke-width="0.72" x1="0" y1="-61.2" x2="72.5" y2="-61.2"/>
			<line fill="none" stroke="#FF333F" stroke-width="0.72" x1="0" y1="-10.8" x2="72.5" y2="-10.8"/>
			<line fill="none" stroke="#FF333F" stroke-width="0.72" x1="0" y1="-25.2" x2="72.5" y2="-25.2"/>
			<line fill="none" stroke="#FF333F" stroke-width="0.72" x1="0" y1="-39.6" x2="72.5" y2="-39.6"/>
			<line fill="none" stroke="#FF333F" stroke-width="0.72" x1="0" y1="-54" x2="72.5" y2="-54"/>
			<line fill="none" stroke="#FF333F" stroke-width="0.72" x1="0" y1="-68.4" x2="72.5" y2="-68.4"/>
		</g>
		<rect x="278.8" y="-40.5" fill="none" width="199.5" height="25.5"/>
		<text transform="matrix(1 0 0 1 278.75 -31.8359)"><tspan x="0" y="0" font-family="'NeutraText-DemiSC'" font-size="12" letter-spacing="1">master</tspan><tspan x="43.9" y="0" font-family="'NeutraText-Bold'" font-size="12"> design transdisciplinaire</tspan></text>
		<g>
			<path fill="none" stroke="#FF333F" stroke-width="4" stroke-linecap="round" stroke-miterlimit="10" d="M209.2-119.5
				c-7.6,0-7.6-8-15.2-8c-7.6,0-7.6,8-15.2,8c-7.6,0-7.6-8-15.2-8c-7.6,0-7.6,8-15.2,8c-7.6,0-7.6-8-15.2-8s-7.6,8-15.2,8"/>
		</g>
		<g>
			<path fill="#FF333F" d="M250.2-99.5h-66.6v66.1h66.6V-99.5 M254.2-103.5v74.1h-74.6v-74.1H254.2L254.2-103.5z"/>
		</g>
		<g>
			<path fill="none" stroke="#FF333F" stroke-width="4" stroke-linecap="round" stroke-miterlimit="10" d="M250.2-71.5
				c-5.7,0-5.7-8-11.4-8c-5.7,0-5.7,8-11.4,8c-5.7,0-5.7-8-11.4-8c-5.7,0-5.7,8-11.4,8c-5.7,0-5.7-8-11.4-8s-5.7,8-11.4,8"/>
		</g>
	</g>
</pattern>
<g id="repères" display="none">
	<rect display="inline" fill="#00FF00" width="250" height="250"/>
</g>
<g id="fonds_blanc">
	<g>
		<rect x="3.5" y="3.5" fill="#FFFFFF" width="69.5" height="69.5"/>
	</g>
	<rect x="68.4" y="67.3" fill="#FFFFFF" width="91.6" height="91.5"/>
	<g>
		<path fill="#FFFFFF" d="M155.1,193.2c-7,0-7-9.8-14-9.8c-7,0-7,9.8-14,9.8c-7,0-7-9.8-14-9.8c-7,0-7,9.8-14,9.8
			c-7,0-7.1-9.8-14.1-9.8c-7,0-7.1,9.8-14.1,9.8h-2.5v51.7H160v-51.7H155.1z"/>
	</g>
	<g>
		<rect x="68.4" y="152.4" fill="#FFFFFF" width="91.6" height="91.5"/>
	</g>
</g>
<g id="Layer_2">
	<g>
		<pattern  id="SVGID_1_" xlink:href="#New_Pattern_Swatch_1" patternTransform="matrix(1.2277 0 0 1.2277 1803.1353 1753.7927)">
		</pattern>
		<rect x="70.4" y="69.3" fill="url(#SVGID_1_)" width="87.6" height="87.5"/>
		<path fill="#FF333F" d="M156,71.3v83.5H72.4V71.3H156 M160,67.3H68.4v91.5H160V67.3L160,67.3z"/>
	</g>
	<g>
		
			<pattern  id="SVGID_2_" xlink:href="#New_Pattern_Swatch_2" patternTransform="matrix(0.5095 -0.5095 -0.5095 1.5284 -7976.4971 1445.6407)">
		</pattern>
		<rect x="70.4" y="155.9" fill="url(#SVGID_2_)" width="87.6" height="87"/>
		<path fill="#FF333F" d="M156,157.9v83H72.4v-83H156 M160,153.9H68.4v91H160V153.9L160,153.9z"/>
	</g>
	<g>
		<path fill="#FFFFFF" d="M70.4,242.9v-47.7h0.5c4.5,0,6.8-3.2,8.7-5.7c1.8-2.5,3.1-4.1,5.5-4.1c2.4,0,3.6,1.5,5.4,4.1
			c1.8,2.6,4.1,5.7,8.7,5.7c4.5,0,6.8-3.2,8.6-5.7c1.8-2.5,3-4.1,5.4-4.1c2.3,0,3.6,1.5,5.4,4.1c1.8,2.6,4.1,5.7,8.6,5.7
			s6.8-3.2,8.6-5.8c1.8-2.5,3-4.1,5.4-4.1c2.3,0,3.6,1.5,5.4,4.1c1.8,2.6,4.1,5.8,8.6,5.8h2.9v47.7H70.4z"/>
		<path fill="#FF333F" d="M141.1,187.4c1.2,0,2,0.7,3.7,3.2c1.9,2.6,4.7,6.6,10.2,6.6h0.9v43.7H72.4v-43.8c4.5-0.6,7-4,8.8-6.5
			c1.8-2.5,2.6-3.3,3.8-3.3c1.3,0,2,0.7,3.8,3.2c1.9,2.6,4.7,6.6,10.3,6.6c5.6,0,8.4-4,10.3-6.6c1.8-2.5,2.5-3.2,3.8-3.2
			c1.2,0,2,0.7,3.7,3.2c1.9,2.6,4.7,6.6,10.3,6.6c5.6,0,8.4-4,10.3-6.6C139.2,188.1,139.9,187.4,141.1,187.4 M141.1,183.4
			c-7,0-7,9.8-14,9.8c-7,0-7-9.8-14-9.8c-7,0-7,9.8-14,9.8c-7,0-7.1-9.8-14.1-9.8c-7,0-7.1,9.8-14.1,9.8h-2.5v51.7H160v-51.7h-4.9
			C148.1,193.2,148.1,183.4,141.1,183.4L141.1,183.4z"/>
	</g>
	<g>
		<rect x="155.1" y="67.3" fill="#FFFFFF" width="91.6" height="91.5"/>
		<path fill="#FF333F" d="M241.8,72.2v81.6H160V72.2H241.8 M246.7,67.3h-91.6v91.5h91.6V67.3L246.7,67.3z"/>
	</g>
	<g>
		<rect x="157.1" y="155.9" fill="#FFFFFF" width="87.6" height="87"/>
		<path fill="#FF333F" d="M242.7,157.9v83h-83.6v-83H242.7 M246.7,153.9h-91.6v91h91.6V153.9L246.7,153.9z"/>
	</g>
	<g>
		<path fill="#FF333F" d="M69,7.5V69H7.5V7.5H69 M73,3.5H3.5V73H73V3.5L73,3.5z"/>
	</g>
	<g>
		<path fill="#0000FF" d="M21.5,26.9h6.4L27.7,30c1.4-2.5,3.3-3.5,5.7-3.5c2.6,0,4.4,1.1,5.7,3.4c1.6-2.1,3.9-3.4,6.8-3.4
			c5,0,8,3.3,8,8.9V47h-6.3V35.9c0-2.4-0.8-3.6-3.2-3.6c-2.5,0-3.5,1.2-3.5,4V47h-6.3V35.9c0-2.4-0.7-3.6-3.1-3.6
			c-2.5,0-3.6,1.2-3.6,4V47h-6.4V26.9z"/>
	</g>
	<path fill="#FF333F" d="M160,156.3c-0.6,0-1.3-0.2-1.7-0.7c-1-1-1-2.5,0-3.5L241,69.4c1-1,2.5-1,3.5,0c1,1,1,2.5,0,3.5l-82.7,82.7
		C161.3,156.1,160.7,156.3,160,156.3z"/>
	<path fill="#FF333F" d="M215.1,130.7c-0.6,0-1.3-0.2-1.7-0.7c-1-1-1-2.5,0-3.5l29.2-29.2c1-1,2.5-1,3.5,0c1,1,1,2.5,0,3.5
		L216.9,130C216.4,130.5,215.7,130.7,215.1,130.7z"/>
	<path fill="#FF333F" d="M188.7,157.1c-0.6,0-1.3-0.2-1.7-0.7c-1-1-1-2.5,0-3.5l8.7-8.7c1-1,2.5-1,3.5,0c1,1,1,2.5,0,3.5l-8.7,8.7
		C190,156.9,189.4,157.1,188.7,157.1z"/>
	<path fill="#FF333F" d="M195.6,92.5c-0.6,0-1.3-0.2-1.7-0.7c-1-1-1-2.5,0-3.5l17.7-17.7c1-1,2.5-1,3.5,0c1,1,1,2.5,0,3.5
		l-17.7,17.7C196.9,92.3,196.3,92.5,195.6,92.5z"/>
	<path fill="#FF333F" d="M176,112.1c-0.6,0-1.3-0.2-1.7-0.7c-1-1-1-2.5,0-3.5L187,95.2c1-1,2.5-1,3.5,0c1,1,1,2.5,0,3.5l-12.7,12.7
		C177.2,111.9,176.6,112.1,176,112.1z"/>
	<path fill="#0000FF" d="M200.9,230.6c-17.3,0-31.3-14-31.3-31.3s14-31.3,31.3-31.3s31.3,14,31.3,31.3S218.2,230.6,200.9,230.6z
		 M200.9,172.9c-14.6,0-26.4,11.8-26.4,26.4c0,14.6,11.8,26.4,26.4,26.4c14.6,0,26.4-11.8,26.4-26.4
		C227.3,184.8,215.5,172.9,200.9,172.9z"/>
</g>
</svg>
