<?xml version="1.0" encoding="utf-8"?>
<!-- Generator: Adobe Illustrator 18.1.1, SVG Export Plug-In . SVG Version: 6.00 Build 0)  -->
<svg version="1.1" xmlns="http://www.w3.org/2000/svg" xmlns:xlink="http://www.w3.org/1999/xlink" x="0px" y="0px"
	 viewBox="0 0 250 250" enable-background="new 0 0 250 250" xml:space="preserve">
<pattern  width="28.8" height="28.8" patternUnits="userSpaceOnUse" id="New_Pattern_Swatch_1" viewBox="2.2 -31 28.8 28.8" overflow="visible">
	<g>
		<polygon fill="none" points="2.2,-31 31,-31 31,-2.2 2.2,-2.2 		"/>
		<g>
			<path fill="#FF333F" d="M31,0c1.2,0,2.2-1,2.2-2.2c0-1.2-1-2.2-2.2-2.2c-1.2,0-2.2,1-2.2,2.2C28.8-1,29.8,0,31,0z"/>
			<path fill="#FF333F" d="M16.6,0c1.2,0,2.2-1,2.2-2.2c0-1.2-1-2.2-2.2-2.2c-1.2,0-2.2,1-2.2,2.2C14.4-1,15.4,0,16.6,0z"/>
			<path fill="#FF333F" d="M31-14.4c1.2,0,2.2-1,2.2-2.2c0-1.2-1-2.2-2.2-2.2c-1.2,0-2.2,1-2.2,2.2C28.8-15.4,29.8-14.4,31-14.4z"/>
			<path fill="#FF333F" d="M16.6-14.4c1.2,0,2.2-1,2.2-2.2c0-1.2-1-2.2-2.2-2.2c-1.2,0-2.2,1-2.2,2.2C14.4-15.4,15.4-14.4,16.6-14.4
				z"/>
			<path fill="#FF333F" d="M9.4-7.2c1.2,0,2.2-1,2.2-2.2c0-1.2-1-2.2-2.2-2.2c-1.2,0-2.2,1-2.2,2.2C7.2-8.2,8.2-7.2,9.4-7.2z"/>
			<path fill="#FF333F" d="M23.8-7.2c1.2,0,2.2-1,2.2-2.2c0-1.2-1-2.2-2.2-2.2c-1.2,0-2.2,1-2.2,2.2C21.6-8.2,22.6-7.2,23.8-7.2z"/>
			<path fill="#FF333F" d="M9.4-21.6c1.2,0,2.2-1,2.2-2.2c0-1.2-1-2.2-2.2-2.2c-1.2,0-2.2,1-2.2,2.2C7.2-22.6,8.2-21.6,9.4-21.6z"/>
			<path fill="#FF333F" d="M23.8-21.6c1.2,0,2.2-1,2.2-2.2c0-1.2-1-2.2-2.2-2.2c-1.2,0-2.2,1-2.2,2.2C21.6-22.6,22.6-21.6,23.8-21.6
				z"/>
		</g>
		<g>
			<path fill="#FF333F" d="M2.2,0c1.2,0,2.2-1,2.2-2.2c0-1.2-1-2.2-2.2-2.2C1-4.3,0-3.4,0-2.2C0-1,1,0,2.2,0z"/>
			<path fill="#FF333F" d="M2.2-14.4c1.2,0,2.2-1,2.2-2.2c0-1.2-1-2.2-2.2-2.2c-1.2,0-2.2,1-2.2,2.2C0-15.4,1-14.4,2.2-14.4z"/>
		</g>
		<g>
			<path fill="#FF333F" d="M31-28.8c1.2,0,2.2-1,2.2-2.2c0-1.2-1-2.2-2.2-2.2c-1.2,0-2.2,1-2.2,2.2C28.8-29.8,29.8-28.8,31-28.8z"/>
			<path fill="#FF333F" d="M16.6-28.8c1.2,0,2.2-1,2.2-2.2c0-1.2-1-2.2-2.2-2.2c-1.2,0-2.2,1-2.2,2.2C14.4-29.8,15.4-28.8,16.6-28.8
				z"/>
		</g>
		<g>
			<path fill="#FF333F" d="M2.2-28.8c1.2,0,2.2-1,2.2-2.2c0-1.2-1-2.2-2.2-2.2C1-33.1,0-32.2,0-31C0-29.8,1-28.8,2.2-28.8z"/>
		</g>
	</g>
</pattern>
<pattern  width="72" height="72" patternUnits="userSpaceOnUse" id="New_Pattern_Swatch_2" viewBox="0.2 -72 72 72" overflow="visible">
	<g>
		<polygon fill="none" points="0.2,-72 72.2,-72 72.2,0 0.2,0 		"/>
		<g>
			<line fill="none" stroke="#FF333F" stroke-width="0.72" x1="72" y1="-3.6" x2="144.5" y2="-3.6"/>
			<line fill="none" stroke="#FF333F" stroke-width="0.72" x1="72" y1="-18" x2="144.5" y2="-18"/>
			<line fill="none" stroke="#FF333F" stroke-width="0.72" x1="72" y1="-32.4" x2="144.5" y2="-32.4"/>
			<line fill="none" stroke="#FF333F" stroke-width="0.72" x1="72" y1="-46.8" x2="144.5" y2="-46.8"/>
			<line fill="none" stroke="#FF333F" stroke-width="0.72" x1="72" y1="-61.2" x2="144.5" y2="-61.2"/>
			<line fill="none" stroke="#FF333F" stroke-width="0.72" x1="72" y1="-10.8" x2="144.5" y2="-10.8"/>
			<line fill="none" stroke="#FF333F" stroke-width="0.72" x1="72" y1="-25.2" x2="144.5" y2="-25.2"/>
			<line fill="none" stroke="#FF333F" stroke-width="0.72" x1="72" y1="-39.6" x2="144.5" y2="-39.6"/>
			<line fill="none" stroke="#FF333F" stroke-width="0.72" x1="72" y1="-54" x2="144.5" y2="-54"/>
			<line fill="none" stroke="#FF333F" stroke-width="0.72" x1="72" y1="-68.4" x2="144.5" y2="-68.4"/>
		</g>
		<g>
			<line fill="none" stroke="#FF333F" stroke-width="0.72" x1="0" y1="-3.6" x2="72.5" y2="-3.6"/>
			<line fill="none" stroke="#FF333F" stroke-width="0.72" x1="0" y1="-18" x2="72.5" y2="-18"/>
			<line fill="none" stroke="#FF333F" stroke-width="0.72" x1="0" y1="-32.4" x2="72.5" y2="-32.4"/>
			<line fill="none" stroke="#FF333F" stroke-width="0.72" x1="0" y1="-46.8" x2="72.5" y2="-46.8"/>
			<line fill="none" stroke="#FF333F" stroke-width="0.72" x1="0" y1="-61.2" x2="72.5" y2="-61.2"/>
			<line fill="none" stroke="#FF333F" stroke-width="0.72" x1="0" y1="-10.8" x2="72.5" y2="-10.8"/>
			<line fill="none" stroke="#FF333F" stroke-width="0.72" x1="0" y1="-25.2" x2="72.5" y2="-25.2"/>
			<line fill="none" stroke="#FF333F" stroke-width="0.72" x1="0" y1="-39.6" x2="72.5" y2="-39.6"/>
			<line fill="none" stroke="#FF333F" stroke-width="0.72" x1="0" y1="-54" x2="72.5" y2="-54"/>
			<line fill="none" stroke="#FF333F" stroke-width="0.72" x1="0" y1="-68.4" x2="72.5" y2="-68.4"/>
		</g>
		<rect x="278.8" y="-40.5" fill="none" width="199.5" height="25.5"/>
		<text transform="matrix(1 0 0 1 278.75 -31.8359)"><tspan x="0" y="0" font-family="'NeutraText-DemiSC'" font-size="12" letter-spacing="1">master</tspan><tspan x="43.9" y="0" font-family="'NeutraText-Bold'" font-size="12"> design transdisciplinaire</tspan></text>
		<g>
			<path fill="none" stroke="#FF333F" stroke-width="4" stroke-linecap="round" stroke-miterlimit="10" d="M209.2-119.5
				c-7.6,0-7.6-8-15.2-8c-7.6,0-7.6,8-15.2,8c-7.6,0-7.6-8-15.2-8c-7.6,0-7.6,8-15.2,8c-7.6,0-7.6-8-15.2-8s-7.6,8-15.2,8"/>
		</g>
		<g>
			<path fill="#FF333F" d="M250.2-99.5h-66.6v66.1h66.6V-99.5 M254.2-103.5v74.1h-74.6v-74.1H254.2L254.2-103.5z"/>
		</g>
		<g>
			<path fill="none" stroke="#FF333F" stroke-width="4" stroke-linecap="round" stroke-miterlimit="10" d="M250.2-71.5
				c-5.7,0-5.7-8-11.4-8c-5.7,0-5.7,8-11.4,8c-5.7,0-5.7-8-11.4-8c-5.7,0-5.7,8-11.4,8c-5.7,0-5.7-8-11.4-8s-5.7,8-11.4,8"/>
		</g>
	</g>
</pattern>
<g id="repères">
	<rect fill="#FFFFFF" width="250" height="250"/>
</g>
<g id="fonds_blanc">
</g>
<g id="Layer_2">
	<g>
		<g>
			<rect x="22.9" y="23.6" fill="#FFFFFF" width="58.4" height="58.4"/>
		</g>
		<rect x="77.4" y="77.3" fill="#FFFFFF" width="76.9" height="76.8"/>
		<g>
			<path fill="#FFFFFF" d="M150.2,182.9c-5.9,0-5.9-8.2-11.7-8.2c-5.9,0-5.9,8.2-11.7,8.2c-5.9,0-5.9-8.2-11.8-8.2
				c-5.9,0-5.9,8.2-11.8,8.2c-5.9,0-5.9-8.2-11.8-8.2c-5.9,0-6,8.2-11.9,8.2h-2.1v43.4h76.9v-43.4H150.2z"/>
		</g>
		<g>
			<rect x="77.4" y="148.7" fill="#FFFFFF" width="76.9" height="76.8"/>
		</g>
		<g>
			<pattern  id="SVGID_1_" xlink:href="#New_Pattern_Swatch_1" patternTransform="matrix(1.031 0 0 1.031 257.7667 251.8248)">
			</pattern>
			<rect x="79.4" y="79.3" fill="url(#SVGID_1_)" width="72.9" height="72.8"/>
			<path fill="#FF333F" d="M150.3,81.3v68.8H81.4V81.3H150.3 M154.3,77.3H77.4v76.8h76.9V77.3L154.3,77.3z"/>
		</g>
		<g>
			
				<pattern  id="SVGID_2_" xlink:href="#New_Pattern_Swatch_2" patternTransform="matrix(0.4279 -0.4279 -0.4279 1.2836 -7972.6724 31.0292)">
			</pattern>
			<rect x="79.4" y="151.9" fill="url(#SVGID_2_)" width="72.9" height="72.4"/>
			<path fill="#FF333F" d="M150.3,153.9v68.4H81.4v-68.4H150.3 M154.3,149.9H77.4v76.4h76.9V149.9L154.3,149.9z"/>
		</g>
		<g>
			<path fill="#FFFFFF" d="M79.4,224.4v-39.4h0.1c4,0,6-2.7,7.6-4.9c1.5-2.1,2.5-3.3,4.3-3.3c1.8,0,2.8,1.2,4.3,3.3
				c1.6,2.2,3.6,5,7.5,5c4,0,5.9-2.8,7.5-5c1.5-2.1,2.4-3.3,4.3-3.3c1.8,0,2.8,1.2,4.3,3.3c1.6,2.2,3.5,5,7.5,5c4,0,5.9-2.8,7.5-5
				c1.5-2.1,2.4-3.3,4.2-3.3c1.8,0,2.7,1.2,4.2,3.3c1.6,2.2,3.5,5,7.5,5h2.1v39.4H79.4z"/>
			<path fill="#FF333F" d="M138.5,178.7c0.7,0,1.2,0.4,2.6,2.4c1.6,2.3,4.1,5.8,9.1,5.8h0.1v35.4H81.4v-35.6
				c3.7-0.7,5.8-3.6,7.3-5.6c1.5-2,2-2.5,2.7-2.5c0.7,0,1.2,0.4,2.7,2.5c1.7,2.3,4.2,5.8,9.2,5.8c5,0,7.5-3.5,9.1-5.8
				c1.5-2,1.9-2.5,2.6-2.5c0.7,0,1.2,0.4,2.6,2.4c1.6,2.3,4.1,5.8,9.1,5.8c5,0,7.5-3.5,9.1-5.8C137.3,179.1,137.7,178.7,138.5,178.7
				 M138.5,174.7c-5.9,0-5.9,8.2-11.7,8.2c-5.9,0-5.9-8.2-11.8-8.2c-5.9,0-5.9,8.2-11.8,8.2c-5.9,0-5.9-8.2-11.8-8.2
				c-5.9,0-6,8.2-11.9,8.2h-2.1v43.4h76.9v-43.4h-4.1C144.3,182.9,144.3,174.7,138.5,174.7L138.5,174.7z"/>
		</g>
		<g>
			<rect x="150.2" y="77.3" fill="#FFFFFF" width="76.9" height="76.8"/>
			<path fill="#FF333F" d="M223,81.4v68.6h-68.7V81.4H223 M227.1,77.3h-76.9v76.8h76.9V77.3L227.1,77.3z"/>
		</g>
		<g>
			<rect x="152.2" y="151.9" fill="#FFFFFF" width="72.9" height="72.4"/>
			<path fill="#FF333F" d="M223.1,153.9v68.4h-68.9v-68.4H223.1 M227.1,149.9h-76.9v76.4h76.9V149.9L227.1,149.9z"/>
		</g>
		<g>
			<path fill="#FF333F" d="M77.2,27.6V78H26.9V27.6H77.2 M81.2,23.6H22.9V82h58.4V23.6L81.2,23.6z"/>
		</g>
		<g>
			<path fill="#0000FF" d="M38,43.3h5.3l-0.1,2.6c1.2-2.1,2.8-3,4.8-3c2.2,0,3.7,0.9,4.8,2.9c1.4-1.7,3.2-2.9,5.7-2.9
				c4.2,0,6.7,2.8,6.7,7.4v9.8h-5.3v-9.3c0-2-0.6-3.1-2.7-3.1c-2.1,0-3,1-3,3.3v9h-5.3v-9.3c0-2-0.6-3.1-2.6-3.1c-2.1,0-3,1-3,3.3v9
				H38V43.3z"/>
		</g>
		<path fill="#FF333F" d="M154.3,152c-0.5,0-1.1-0.2-1.5-0.6c-0.8-0.8-0.8-2.1,0-2.9L222.3,79c0.8-0.8,2.1-0.8,2.9,0
			c0.8,0.8,0.8,2.1,0,2.9l-69.5,69.5C155.4,151.8,154.8,152,154.3,152z"/>
		<path fill="#FF333F" d="M200.6,130.5c-0.5,0-1.1-0.2-1.5-0.6c-0.8-0.8-0.8-2.1,0-2.9l24.5-24.5c0.8-0.8,2.1-0.8,2.9,0
			c0.8,0.8,0.8,2.1,0,2.9L202,129.9C201.6,130.3,201.1,130.5,200.6,130.5z"/>
		<path fill="#FF333F" d="M178.4,152.6c-0.5,0-1.1-0.2-1.5-0.6c-0.8-0.8-0.8-2.1,0-2.9l7.3-7.3c0.8-0.8,2.1-0.8,2.9,0
			c0.8,0.8,0.8,2.1,0,2.9l-7.3,7.3C179.5,152.4,178.9,152.6,178.4,152.6z"/>
		<path fill="#FF333F" d="M184.2,98.4c-0.5,0-1.1-0.2-1.5-0.6c-0.8-0.8-0.8-2.1,0-2.9L197.6,80c0.8-0.8,2.1-0.8,2.9,0
			c0.8,0.8,0.8,2.1,0,2.9l-14.9,14.9C185.3,98.2,184.7,98.4,184.2,98.4z"/>
		<path fill="#FF333F" d="M167.7,114.9c-0.5,0-1.1-0.2-1.5-0.6c-0.8-0.8-0.8-2.1,0-2.9l10.7-10.7c0.8-0.8,2.1-0.8,2.9,0
			c0.8,0.8,0.8,2.1,0,2.9l-10.7,10.7C168.8,114.7,168.2,114.9,167.7,114.9z"/>
		<path fill="#0000FF" d="M188.7,214.4c-14.5,0-26.3-11.8-26.3-26.3c0-14.5,11.8-26.3,26.3-26.3c14.5,0,26.3,11.8,26.3,26.3
			C215,202.6,203.2,214.4,188.7,214.4z M188.7,165.9c-12.2,0-22.2,9.9-22.2,22.2c0,12.2,9.9,22.2,22.2,22.2
			c12.2,0,22.2-9.9,22.2-22.2C210.8,175.9,200.9,165.9,188.7,165.9z"/>
	</g>
</g>
</svg>
